<svg width="26" height="26" viewBox="0 0 26 26" fill="none" xmlns="http://www.w3.org/2000/svg">
<g clip-path="url(#clip0_596_1177)">
<path d="M25.0916 3.15203C25.237 3.29792 25.3187 3.49552 25.3187 3.70151C25.3187 3.90751 25.237 4.10511 25.0916 4.25099L23.4681 5.87609L20.3549 2.76288L21.9784 1.13779C22.1243 0.991879 22.3223 0.909912 22.5287 0.909912C22.735 0.909912 22.933 0.991879 23.0789 1.13779L25.0916 3.15048V3.15203ZM22.3675 6.97505L19.2543 3.86184L8.6492 14.4685C8.56352 14.5542 8.49903 14.6587 8.46085 14.7736L7.20778 18.5313C7.18506 18.5998 7.18183 18.6733 7.19846 18.7435C7.2151 18.8137 7.25093 18.8779 7.30197 18.929C7.353 18.98 7.41723 19.0158 7.48746 19.0325C7.55769 19.0491 7.63116 19.0459 7.69967 19.0232L11.4573 17.7701C11.5721 17.7324 11.6766 17.6684 11.7624 17.5833L22.3675 6.97505Z" fill="white"/>
<path fill-rule="evenodd" clip-rule="evenodd" d="M2.51758 21.1463C2.51758 21.7655 2.76358 22.3594 3.20146 22.7973C3.63934 23.2352 4.23323 23.4812 4.85248 23.4812H21.9751C22.5944 23.4812 23.1883 23.2352 23.6262 22.7973C24.064 22.3594 24.31 21.7655 24.31 21.1463V11.8066C24.31 11.6002 24.228 11.4023 24.0821 11.2563C23.9361 11.1103 23.7381 11.0283 23.5317 11.0283C23.3253 11.0283 23.1273 11.1103 22.9814 11.2563C22.8354 11.4023 22.7534 11.6002 22.7534 11.8066V21.1463C22.7534 21.3527 22.6714 21.5506 22.5255 21.6966C22.3795 21.8426 22.1815 21.9246 21.9751 21.9246H4.85248C4.64607 21.9246 4.4481 21.8426 4.30214 21.6966C4.15618 21.5506 4.07418 21.3527 4.07418 21.1463V4.02363C4.07418 3.81721 4.15618 3.61924 4.30214 3.47328C4.4481 3.32732 4.64607 3.24532 4.85248 3.24532H14.9704C15.1768 3.24532 15.3748 3.16332 15.5208 3.01737C15.6667 2.87141 15.7487 2.67344 15.7487 2.46702C15.7487 2.2606 15.6667 2.06264 15.5208 1.91668C15.3748 1.77072 15.1768 1.68872 14.9704 1.68872H4.85248C4.23323 1.68872 3.63934 1.93472 3.20146 2.3726C2.76358 2.81048 2.51758 3.40437 2.51758 4.02363V21.1463Z" fill="white"/>
</g>
<defs>
<clipPath id="clip0_596_1177">
<rect width="24.9057" height="24.9057" fill="white" transform="translate(0.960938 0.132324)"/>
</clipPath>
</defs>
</svg>
