<svg width="350" height="350" viewBox="0 0 350 350" fill="none" xmlns="http://www.w3.org/2000/svg">
<g clip-path="url(#clip0_388_1053)">
<path d="M350.725 175.175C350.725 272.025 272.213 350.538 175.363 350.538C78.5126 350.538 0 272.025 0 175.175C0 78.3251 78.5126 -0.1875 175.363 -0.1875C272.213 -0.1875 350.725 78.3251 350.725 175.175ZM14.029 175.175C14.029 264.277 86.2606 336.509 175.363 336.509C264.465 336.509 336.696 264.277 336.696 175.175C336.696 86.0731 264.465 13.8415 175.363 13.8415C86.2606 13.8415 14.029 86.0731 14.029 175.175Z" fill="#FF459D"/>
</g>
<g clip-path="url(#clip1_388_1053)">
<path d="M159.137 138.128C158.815 139.475 157.788 140.542 156.453 140.913C138.045 146.032 120.188 137.858 113.207 121.467C105.314 102.993 112.28 80.4351 129.696 70.0998L159.137 138.128ZM159.137 138.128C159.459 136.781 159.024 135.365 158.001 134.431M159.137 138.128L158.001 134.431M158.001 134.431C157.248 133.744 156.665 133.229 156.176 132.797C155.463 132.167 154.949 131.713 154.394 131.153L154.365 131.125C151.291 128.092 149.725 125.012 149.252 121.947C148.777 118.864 149.352 115.427 151.2 111.608C152.747 108.414 154.817 106.65 157.213 105.67C159.725 104.643 162.882 104.366 166.672 104.732C170.754 105.139 173.587 106.554 175.647 108.588C177.762 110.676 179.327 113.681 180.355 117.667C182.152 124.657 178.29 133.504 169.537 139.195L169.537 139.195C160.302 145.202 149.825 145.735 138.259 145.005C101.287 142.663 78.2096 106.6 92.7277 72.9149L92.7278 72.9146C103.165 48.6924 122.968 35.024 149.233 31.5803C167.795 29.2153 188.548 32.1187 205.724 41.3613C222.802 50.5516 236.375 66.0062 240.952 89.0621L240.952 89.0629C248.389 126.481 234.122 157.702 206.207 182.911L206.205 182.912C173.207 212.748 133.093 225.387 88.8682 225.724M158.001 134.431L222.412 107.721M222.412 107.721L222.412 107.721C228.003 133.716 217.942 155.666 201.132 173.735L201.131 173.737C181.72 194.582 156.204 202.766 129.289 204.783M222.412 107.721C217.61 85.4112 200.95 71.9778 182.535 66.1607M222.412 107.721L182.535 66.1607M129.289 204.783L129.004 200.986M129.289 204.783C129.289 204.783 129.29 204.783 129.29 204.783L129.004 200.986M129.289 204.783C112.098 206.075 94.5813 205.622 77.2344 199.743L77.2289 199.741C41.5274 187.582 23.0718 161.735 18.2178 133.544C13.3983 105.555 21.9968 75.3959 39.9383 54.1708C66.5711 22.6502 101.954 9.3281 140.289 3.99714L140.292 3.99672C184.22 -2.07595 227.777 1.56124 269.339 18.8651L269.34 18.8657C295.611 29.8157 317.795 47.3435 327.853 75.4434L324.267 76.7267L327.853 75.4436C340.372 110.424 332.197 142.794 308.701 170.567C279.52 205.142 240.928 222.891 197.811 230.966L197.11 227.223L197.811 230.966C194.379 231.609 192.811 232.287 192.032 233.04C191.516 233.538 190.823 234.592 191.088 237.857L191.088 237.858C191.689 245.328 192.054 252.732 192.418 260.095C193.555 283.167 194.673 305.842 202.986 328.932C203.435 330.178 203.204 331.568 202.376 332.602C201.548 333.636 200.242 334.166 198.928 334C175.544 331.056 153.633 328.687 131.586 328.695H131.584C109.416 328.695 87.3998 331.057 64.267 334.031C63.0259 334.19 61.7856 333.73 60.9491 332.799C60.1126 331.869 59.7866 330.587 60.077 329.37C60.5052 327.575 60.8824 325.864 61.2439 324.223C61.9813 320.877 62.6534 317.827 63.5599 314.974L63.5627 314.965C70.962 291.874 73.9449 267.595 72.3554 243.398L72.3549 243.391C72.0326 238.346 72.2943 233.466 75.3294 230.053C78.4076 226.592 83.3053 225.765 88.8682 225.724M129.004 200.986C155.345 199.011 179.807 191.048 198.344 171.141L129.004 200.986ZM88.8682 225.724L88.8959 229.532M88.8682 225.724C88.8678 225.724 88.8674 225.724 88.8669 225.724L88.8959 229.532M88.8959 229.532C133.87 229.19 174.942 216.314 208.76 185.737L187.292 238.164C187.873 245.384 188.229 252.63 188.587 259.9C189.662 281.788 190.749 303.898 198.028 326.211C198.644 326.288 199.261 326.365 199.879 326.443L199.403 330.222L195.82 331.512C195.602 330.906 195.389 330.3 195.18 329.695C173.331 326.995 152.542 324.879 131.584 324.887C110.466 324.887 89.5303 327.006 67.8142 329.74C67.7093 330.193 67.6 330.658 67.4856 331.137L63.7813 330.253L63.2957 326.476C63.76 326.417 64.2239 326.357 64.6875 326.298C64.7995 325.793 64.9081 325.299 65.0145 324.816C65.7248 321.589 66.3344 318.818 67.1894 316.128C74.7346 292.58 77.7763 267.822 76.1555 243.149C75.5105 233.052 77.9392 229.612 88.8959 229.532ZM182.535 66.1607C164.263 60.3892 143.558 61.8698 129.697 70.0994L182.535 66.1607Z" fill="#007AFF" stroke="#FEF2F8" stroke-width="7.61658" stroke-linejoin="round"/>
</g>
<g clip-path="url(#clip2_388_1053)">
<path d="M350.376 174.794C350.376 271.644 271.863 350.157 175.013 350.157C78.1629 350.157 -0.349609 271.644 -0.349609 174.794C-0.349609 77.944 78.1629 -0.568604 175.013 -0.568604C271.863 -0.568604 350.376 77.944 350.376 174.794ZM13.6794 174.794C13.6794 263.896 85.9109 336.128 175.013 336.128C264.115 336.128 336.347 263.896 336.347 174.794C336.347 85.692 264.115 13.4604 175.013 13.4604C85.9109 13.4604 13.6794 85.692 13.6794 174.794Z" fill="#FF459D"/>
</g>
<defs>
<clipPath id="clip0_388_1053">
<rect width="350" height="259.514" fill="white" transform="translate(0 90.4861)"/>
</clipPath>
<clipPath id="clip1_388_1053">
<rect width="350" height="350" fill="white"/>
</clipPath>
<clipPath id="clip2_388_1053">
<rect width="57.5491" height="76.0083" fill="white" transform="translate(168.666 273.991)"/>
</clipPath>
</defs>
</svg>
