<svg width="364" height="187" viewBox="0 0 364 187" fill="none" xmlns="http://www.w3.org/2000/svg">
<path d="M2 131.049C0.908901 131.049 0.0243903 131.934 0.0243902 133.025C0.0243901 134.116 0.908901 135 2 135L2 131.049ZM342.463 133.025C342.463 138.844 347.181 143.561 353 143.561C358.819 143.561 363.537 138.844 363.537 133.025C363.537 127.205 358.819 122.488 353 122.488C347.181 122.488 342.463 127.205 342.463 133.025ZM2 135L353 135L353 131.049L2 131.049L2 135Z" fill="#FF459D"/>
<path d="M19.616 161.256C14.5123 161.256 10.5611 156.976 10.5611 151.707V55.2317C10.5611 55.0671 10.5611 55.0671 10.5611 55.0671V46.0122C10.5611 45.8476 10.7257 45.6829 10.8904 45.6829H18.4635C21.2623 45.6829 23.7318 47 25.3782 49.1402C28.1769 47 31.6343 45.6829 35.4208 45.6829H43.6525C52.8721 45.6829 60.4452 53.2561 60.4452 62.4756V111.701C60.4452 120.921 52.8721 128.329 43.6525 128.329H35.4208C32.6221 128.329 29.8233 127.671 27.5184 126.354V160.927C27.5184 161.091 27.3538 161.256 27.1891 161.256H19.616ZM35.4208 46.3415C31.7989 46.3415 28.5062 47.4939 25.7074 49.6341C26.8599 51.1158 27.5184 53.0915 27.5184 55.2317V125.695C29.8233 127.012 32.6221 127.835 35.4208 127.835C39.866 127.835 43.3233 124.213 43.3233 119.933V54.2439C43.3233 49.7988 39.866 46.3415 35.4208 46.3415ZM101.532 45.6829C110.751 45.6829 118.324 53.2561 118.324 62.4756V111.701C118.324 120.921 110.751 128.329 101.532 128.329H85.0683C75.8488 128.329 68.4403 120.921 68.4403 111.701V62.4756C68.4403 53.2561 75.8488 45.6829 85.0683 45.6829H101.532ZM101.202 119.768V54.2439C101.202 49.7988 97.5805 46.3415 93.3 46.3415C89.0195 46.3415 85.3976 49.7988 85.3976 54.2439V119.768V119.933C85.3976 124.213 89.0195 127.835 93.3 127.835C97.5805 127.835 101.202 124.213 101.202 119.933V119.768ZM126.319 118.945V55.2317V46.0122C126.319 45.8476 126.319 45.6829 126.484 45.6829H134.222C137.021 45.6829 139.49 47 141.137 49.1402C143.935 47 147.393 45.6829 151.179 45.6829H159.411C168.63 45.6829 176.204 53.2561 176.204 62.4756V78.7744C176.204 78.939 176.039 79.1037 175.874 79.1037C166.655 79.1037 159.082 71.6951 159.082 62.4756V54.2439C159.082 49.7988 155.624 46.3415 151.179 46.3415C147.557 46.3415 144.265 47.4939 141.466 49.6341C142.618 51.1158 143.277 53.0915 143.277 55.2317V118.945V128.165C143.277 128.329 143.112 128.329 142.948 128.329H135.374C130.271 128.329 126.319 124.213 126.319 118.945ZM192.101 45.6829C197.04 45.6829 201.156 49.9634 201.156 55.2317V128.165C201.156 128.329 200.991 128.329 200.827 128.329H193.254C188.15 128.329 184.199 124.213 184.199 118.945V55.2317C184.199 55.0671 184.199 55.0671 184.199 55.0671V46.0122C184.199 45.8476 184.199 45.6829 184.528 45.6829C191.772 45.6829 198.028 40.7439 200.004 33.8293C198.522 36.4634 195.723 38.1098 192.595 38.1098C187.985 38.1098 184.199 34.3232 184.199 29.5488C184.199 24.939 187.985 20.9878 192.595 20.9878C197.369 20.9878 201.156 24.939 201.156 29.5488C201.156 37.2866 195.888 43.7073 188.973 45.6829H192.101ZM202.859 46.3415C202.694 46.3415 202.694 46.1768 202.694 46.0122C202.694 45.8476 202.694 45.6829 202.859 45.6829H209.444V22.3049V13.0854C209.444 12.9207 209.609 12.9207 209.774 12.9207H217.347C222.45 12.9207 226.402 17.0366 226.402 22.3049V45.6829H232.987C233.152 45.6829 233.316 45.8476 233.316 46.0122C233.316 46.1768 233.152 46.3415 232.987 46.3415H226.402V118.945V128.165C226.402 128.329 226.402 128.329 226.072 128.329H218.499C213.56 128.329 209.444 124.213 209.444 118.945V46.3415H202.859ZM267.934 45.6829C277.154 45.6829 284.727 53.2561 284.727 62.4756V111.701C284.727 120.921 277.154 128.329 267.934 128.329H251.471C242.252 128.329 234.843 120.921 234.843 111.701V62.4756C234.843 53.2561 242.252 45.6829 251.471 45.6829H267.934ZM267.605 119.768V54.2439C267.605 49.7988 263.983 46.3415 259.703 46.3415C255.422 46.3415 251.8 49.7988 251.8 54.2439V119.768V119.933C251.8 124.213 255.422 127.835 259.703 127.835C263.983 127.835 267.605 124.213 267.605 119.933V119.768ZM325.814 45.6829C335.033 45.6829 342.442 53.2561 342.442 62.4756V78.7744C342.442 78.939 342.442 79.1037 342.277 79.1037C333.058 79.1037 325.484 71.6951 325.484 62.4756V54.2439C325.484 49.7988 321.862 46.3415 317.582 46.3415C313.137 46.3415 309.679 49.7988 309.679 54.2439V70.5427C309.679 74.9878 313.137 78.4451 317.582 78.4451H325.814C335.033 78.6098 342.442 86.0183 342.442 95.2378V111.701C342.442 120.921 335.033 128.329 325.814 128.329H317.582H309.35C300.131 128.329 292.722 120.921 292.722 111.701V95.2378C292.722 95.0732 292.722 94.9085 292.887 94.9085C302.106 94.9085 309.679 102.482 309.679 111.701V119.933C309.679 124.213 313.137 127.835 317.582 127.835C321.862 127.835 325.484 124.213 325.484 119.933V87.0061C325.484 82.7256 321.862 79.1037 317.582 79.1037H309.35C300.131 79.1037 292.722 71.6951 292.722 62.4756C292.722 53.2561 300.131 45.6829 309.35 45.6829H317.582H325.814Z" fill="#007AFF"/>
<path d="M200.22 42.9576C200.22 40.38 202.399 38.3397 204.971 38.5098L277.161 43.2826C278.783 43.3899 280.28 42.4074 280.827 40.876C281.82 38.0943 285.54 37.5934 287.233 40.0133L287.823 40.8552C289.757 43.6184 287.78 47.4151 284.407 47.4151H281.878H204.677C202.215 47.4151 200.22 45.4194 200.22 42.9576Z" fill="#007AFF"/>
<path d="M164.693 175.025V143.937H175.724C181.648 143.937 185.698 147.793 185.698 153.567V153.61C185.698 159.384 181.648 163.305 175.724 163.305H167.645V175.025H164.693ZM175.034 146.565H167.645V160.676H175.034C179.817 160.676 182.704 158.027 182.704 153.632V153.588C182.704 149.215 179.817 146.565 175.034 146.565ZM200.241 175.412C193.734 175.412 189.727 170.781 189.727 163.499V163.456C189.727 156.217 193.777 151.434 200.004 151.434C206.23 151.434 210.065 156.088 210.065 162.96V164.167H192.636C192.722 169.596 195.695 172.849 200.305 172.849C203.688 172.849 206.014 171.254 206.768 169.445L206.855 169.294H209.72L209.655 169.466C208.75 172.612 205.368 175.412 200.241 175.412ZM200.004 153.976C195.996 153.976 193.023 156.82 192.657 161.84H207.178C206.855 156.691 203.989 153.976 200.004 153.976ZM223.853 175.175C219.415 175.175 217.583 173.473 217.583 169.251V154.213H213.856V151.822H217.583V145.79H220.535V151.822H225.835V154.213H220.535V168.605C220.535 171.448 221.548 172.633 224.176 172.633C224.822 172.633 225.253 172.612 225.835 172.547V175.003C225.188 175.111 224.542 175.175 223.853 175.175ZM254.014 175.671C247.443 175.671 242.984 172.138 242.531 167.161L242.51 166.924H245.461L245.483 167.161C245.806 170.587 249.382 172.935 254.165 172.935C258.84 172.935 262.201 170.393 262.201 166.903V166.86C262.201 163.994 260.154 162.034 255.372 160.956L252.183 160.246C245.935 158.824 243.307 156.174 243.307 151.886V151.865C243.307 146.931 247.723 143.29 253.928 143.29C260.003 143.29 264.226 146.824 264.592 151.283L264.614 151.563H261.662L261.641 151.305C261.188 148.31 258.258 146.005 253.842 146.027C249.555 146.027 246.302 148.332 246.302 151.8V151.822C246.302 154.558 248.219 156.303 252.937 157.38L256.126 158.113C262.589 159.578 265.196 162.184 265.196 166.515V166.536C265.196 172.03 260.714 175.671 254.014 175.671ZM271.551 175.025V142.58H274.395V155.894H274.675C275.903 153.071 278.402 151.434 282.021 151.434C287.192 151.434 290.143 154.536 290.143 159.944V175.025H287.3V160.655C287.3 156.238 285.274 153.976 281.267 153.976C277.174 153.976 274.395 156.863 274.395 161.237V175.025H271.551ZM306.603 175.412C300.118 175.412 296.068 170.824 296.068 163.434V163.391C296.068 156.001 300.118 151.434 306.603 151.434C313.088 151.434 317.159 156.001 317.159 163.391V163.434C317.159 170.824 313.088 175.412 306.603 175.412ZM306.603 172.87C311.386 172.87 314.229 169.294 314.229 163.434V163.391C314.229 157.531 311.386 153.976 306.603 153.976C301.82 153.976 298.976 157.531 298.976 163.391V163.434C298.976 169.294 301.82 172.87 306.603 172.87ZM323.256 182.716V151.822H326.1V156.432H326.38C327.738 153.33 330.603 151.434 334.158 151.434C340.039 151.434 343.982 156.238 343.982 163.391V163.434C343.982 170.63 340.039 175.412 334.158 175.412C330.646 175.412 327.651 173.495 326.38 170.5H326.1V182.716H323.256ZM333.576 172.87C338.165 172.87 341.073 169.186 341.073 163.434V163.391C341.073 157.66 338.165 153.976 333.576 153.976C329.009 153.976 326.057 157.682 326.057 163.391V163.434C326.057 169.165 329.009 172.87 333.576 172.87Z" fill="#FF459D"/>
<path d="M63.0117 175L70.3809 155.271H72.2402L79.623 175H77.6543L75.4668 168.957H67.168L64.9805 175H63.0117ZM71.2285 157.719L67.7422 167.344H74.8789L71.3926 157.719H71.2285ZM87.6484 175.246C83.9297 175.246 81.4277 172.197 81.4277 167.658V167.631C81.4277 163.064 83.916 160.029 87.6484 160.029C89.877 160.029 91.7773 161.246 92.5977 163.146H92.7617V154.41H94.5801V175H92.7617V172.061H92.5977C91.7363 174.043 89.918 175.246 87.6484 175.246ZM88.0312 173.633C90.9297 173.633 92.8027 171.281 92.8027 167.645V167.617C92.8027 163.994 90.9297 161.643 88.0312 161.643C85.1191 161.643 83.2734 163.98 83.2734 167.617V167.645C83.2734 171.295 85.1191 173.633 88.0312 173.633ZM99.3379 175V160.275H101.143V162.873H101.32C101.949 161.109 103.467 160.029 105.477 160.029C107.541 160.029 109.018 161.164 109.646 162.928H109.824C110.576 161.164 112.299 160.029 114.418 160.029C117.371 160.029 119.08 161.807 119.08 164.924V175H117.262V165.334C117.262 162.928 116.1 161.643 113.885 161.643C111.615 161.643 110.098 163.379 110.098 165.662V175H108.293V165.143C108.293 163.023 106.953 161.643 104.916 161.643C102.783 161.643 101.143 163.557 101.143 165.963V175H99.3379ZM124.562 157.213C123.824 157.213 123.223 156.625 123.223 155.887C123.223 155.148 123.824 154.561 124.562 154.561C125.287 154.561 125.889 155.148 125.889 155.887C125.889 156.625 125.287 157.213 124.562 157.213ZM123.646 175V160.275H125.451V175H123.646ZM130.154 175V160.275H131.959V162.859H132.137C132.916 161.082 134.502 160.029 136.799 160.029C140.08 160.029 141.953 161.998 141.953 165.43V175H140.148V165.881C140.148 163.078 138.877 161.643 136.32 161.643C133.723 161.643 131.959 163.475 131.959 166.25V175H130.154ZM153.506 182.67V143.998H156.17V182.67H153.506Z" fill="#FF459D"/>
</svg>
