<svg width="239" height="48" viewBox="0 0 239 48" fill="none" xmlns="http://www.w3.org/2000/svg">
<rect width="239" height="48" rx="10" fill="#CFE6FF"/>
<path d="M60.9383 32L66.0262 17.9082H68.3895L73.4773 32H71.1727L69.9031 28.1914H64.5125L63.2332 32H60.9383ZM67.1199 20.3789L65.0984 26.4336H69.3172L67.2859 20.3789H67.1199ZM78.5656 32.1758C75.8996 32.1758 74.1711 30.0371 74.1711 26.707V26.6875C74.1711 23.3281 75.8703 21.209 78.5656 21.209C80.0207 21.209 81.2609 21.9316 81.8273 23.0742H81.9934V17.2344H84.1027V32H81.9934V30.3301H81.8273C81.2121 31.4922 80.05 32.1758 78.5656 32.1758ZM79.1711 30.3691C80.9387 30.3691 82.0227 28.9727 82.0227 26.707V26.6875C82.0227 24.4219 80.9289 23.0254 79.1711 23.0254C77.3937 23.0254 76.3293 24.4121 76.3293 26.6875V26.707C76.3293 28.9824 77.3937 30.3691 79.1711 30.3691ZM87.9605 19.5C87.2281 19.5 86.6324 18.9043 86.6324 18.1816C86.6324 17.4492 87.2281 16.8535 87.9605 16.8535C88.6832 16.8535 89.2887 17.4492 89.2887 18.1816C89.2887 18.9043 88.6832 19.5 87.9605 19.5ZM86.8961 32V21.3945H89.0055V32H86.8961ZM96.1543 32.2051C93.0586 32.2051 91.1641 30.0957 91.1641 26.668V26.6484C91.1641 23.2891 93.0488 21.1895 96.1445 21.1895C98.8105 21.1895 100.402 22.6934 100.695 24.7539V24.8027L98.6641 24.8125L98.6543 24.7832C98.4199 23.7383 97.5605 22.957 96.1543 22.957C94.3867 22.957 93.3223 24.3633 93.3223 26.6484V26.668C93.3223 29.0117 94.4062 30.4375 96.1543 30.4375C97.4824 30.4375 98.3027 29.832 98.6445 28.6895L98.6641 28.6406H100.695L100.676 28.7285C100.295 30.7891 98.7812 32.2051 96.1543 32.2051ZM103.801 19.5C103.069 19.5 102.473 18.9043 102.473 18.1816C102.473 17.4492 103.069 16.8535 103.801 16.8535C104.524 16.8535 105.129 17.4492 105.129 18.1816C105.129 18.9043 104.524 19.5 103.801 19.5ZM102.737 32V21.3945H104.846V32H102.737ZM112.024 32.2051C108.909 32.2051 107.005 30.125 107.005 26.707V26.6875C107.005 23.2793 108.919 21.1895 112.024 21.1895C115.12 21.1895 117.034 23.2695 117.034 26.6875V26.707C117.034 30.125 115.13 32.2051 112.024 32.2051ZM112.024 30.4375C113.841 30.4375 114.876 29.0508 114.876 26.707V26.6875C114.876 24.334 113.841 22.957 112.024 22.957C110.198 22.957 109.173 24.334 109.173 26.6875V26.707C109.173 29.0605 110.198 30.4375 112.024 30.4375ZM119.163 32V21.3945H121.282V23.0059H121.439C121.956 21.873 122.972 21.1895 124.515 21.1895C126.888 21.1895 128.196 22.6055 128.196 25.1348V32H126.087V25.6328C126.087 23.875 125.355 23.0059 123.802 23.0059C122.249 23.0059 121.282 24.0703 121.282 25.7793V32H119.163ZM133.666 32.1758C131.644 32.1758 130.15 30.9453 130.15 29.0215V29.002C130.15 27.1074 131.576 26.0039 134.105 25.8477L136.976 25.6816V24.7441C136.976 23.582 136.244 22.9375 134.808 22.9375C133.636 22.9375 132.865 23.3672 132.611 24.1191L132.601 24.1582H130.56L130.57 24.0898C130.824 22.3516 132.494 21.1895 134.906 21.1895C137.572 21.1895 139.076 22.5176 139.076 24.7441V32H136.976V30.4961H136.81C136.185 31.5703 135.072 32.1758 133.666 32.1758ZM132.259 28.9336C132.259 29.9102 133.089 30.4863 134.232 30.4863C135.814 30.4863 136.976 29.4512 136.976 28.084V27.1758L134.388 27.3418C132.923 27.4297 132.259 27.957 132.259 28.9141V28.9336ZM141.664 32V21.3945H143.783V22.9961H143.939C144.32 21.873 145.307 21.209 146.723 21.209C147.064 21.209 147.436 21.2578 147.65 21.3066V23.2598C147.27 23.1816 146.908 23.1328 146.508 23.1328C144.887 23.1328 143.783 24.1289 143.783 25.6621V32H141.664ZM154.341 35.5352V21.3945H156.46V23.0645H156.616C157.231 21.9023 158.393 21.209 159.878 21.209C162.554 21.209 164.272 23.3477 164.272 26.6875V26.707C164.272 30.0664 162.573 32.1758 159.878 32.1758C158.423 32.1758 157.182 31.4629 156.616 30.3203H156.46V35.5352H154.341ZM159.282 30.3691C161.05 30.3691 162.114 28.9824 162.114 26.707V26.6875C162.114 24.4023 161.05 23.0254 159.282 23.0254C157.514 23.0254 156.421 24.4219 156.421 26.6875V26.707C156.421 28.9727 157.514 30.3691 159.282 30.3691ZM166.421 32V21.3945H168.54V22.9961H168.696C169.077 21.873 170.064 21.209 171.48 21.209C171.821 21.209 172.193 21.2578 172.407 21.3066V23.2598C172.027 23.1816 171.665 23.1328 171.265 23.1328C169.644 23.1328 168.54 24.1289 168.54 25.6621V32H166.421ZM178.248 32.2051C175.132 32.2051 173.228 30.125 173.228 26.707V26.6875C173.228 23.2793 175.142 21.1895 178.248 21.1895C181.343 21.1895 183.257 23.2695 183.257 26.6875V26.707C183.257 30.125 181.353 32.2051 178.248 32.2051ZM178.248 30.4375C180.064 30.4375 181.099 29.0508 181.099 26.707V26.6875C181.099 24.334 180.064 22.957 178.248 22.957C176.421 22.957 175.396 24.334 175.396 26.6875V26.707C175.396 29.0605 176.421 30.4375 178.248 30.4375ZM189.254 32.1758C186.588 32.1758 184.859 30.0371 184.859 26.707V26.6875C184.859 23.3281 186.559 21.209 189.254 21.209C190.709 21.209 191.949 21.9316 192.516 23.0742H192.682V17.2344H194.791V32H192.682V30.3301H192.516C191.9 31.4922 190.738 32.1758 189.254 32.1758ZM189.859 30.3691C191.627 30.3691 192.711 28.9727 192.711 26.707V26.6875C192.711 24.4219 191.617 23.0254 189.859 23.0254C188.082 23.0254 187.018 24.4121 187.018 26.6875V26.707C187.018 28.9824 188.082 30.3691 189.859 30.3691ZM201.08 32.2051C198.688 32.2051 197.448 30.7695 197.448 28.2598V21.3945H199.567V27.7617C199.567 29.5195 200.211 30.3887 201.764 30.3887C203.463 30.3887 204.371 29.3242 204.371 27.6152V21.3945H206.481V32H204.371V30.3984H204.205C203.698 31.541 202.623 32.2051 201.08 32.2051ZM213.141 32.0684C210.807 32.0684 209.85 31.248 209.85 29.207V23.0645H208.19V21.3945H209.85V18.7188H212.009V21.3945H214.284V23.0645H212.009V28.6992C212.009 29.8418 212.438 30.3105 213.483 30.3105C213.805 30.3105 213.991 30.3008 214.284 30.2715V31.9609C213.942 32.0195 213.552 32.0684 213.141 32.0684ZM220.73 32.2051C217.614 32.2051 215.71 30.125 215.71 26.707V26.6875C215.71 23.2793 217.624 21.1895 220.73 21.1895C223.825 21.1895 225.739 23.2695 225.739 26.6875V26.707C225.739 30.125 223.835 32.2051 220.73 32.2051ZM220.73 30.4375C222.546 30.4375 223.581 29.0508 223.581 26.707V26.6875C223.581 24.334 222.546 22.957 220.73 22.957C218.904 22.957 217.878 24.334 217.878 26.6875V26.707C217.878 29.0605 218.904 30.4375 220.73 30.4375Z" fill="#007AFF"/>
<path d="M17.8335 23.9999H34.1668M26.0002 15.8333V32.1666" stroke="#007AFF" stroke-width="3" stroke-linecap="round" stroke-linejoin="round"/>
</svg>
