<svg width="176" height="90" viewBox="0 0 176 90" fill="none" xmlns="http://www.w3.org/2000/svg">
<path d="M1 63.3884C0.472236 63.3884 0.0443984 63.8162 0.0443983 64.344C0.0443983 64.8718 0.472236 65.2996 1 65.2996L1 63.3884ZM165.682 64.344C165.682 67.1588 167.964 69.4406 170.779 69.4406C173.593 69.4406 175.875 67.1588 175.875 64.344C175.875 61.5293 173.593 59.2475 170.779 59.2475C167.964 59.2475 165.682 61.5293 165.682 64.344ZM1 65.2996L170.779 65.2996L170.779 63.3884L1 63.3884L1 65.2996Z" fill="#FF459D"/>
<path d="M9.52078 78.086C7.05214 78.086 5.14094 76.0155 5.14094 73.4672V26.802C5.14094 26.7224 5.14094 26.7224 5.14094 26.7224V22.3425C5.14094 22.2629 5.22057 22.1833 5.30021 22.1833H8.96335C10.3171 22.1833 11.5116 22.8203 12.308 23.8556C13.6617 22.8203 15.334 22.1833 17.1656 22.1833H21.1473C25.6067 22.1833 29.2699 25.8464 29.2699 30.3059V54.1163C29.2699 58.5758 25.6067 62.1593 21.1473 62.1593H17.1656C15.8118 62.1593 14.4581 61.8407 13.3432 61.2037V77.9267C13.3432 78.0063 13.2636 78.086 13.1839 78.086H9.52078ZM17.1656 22.5018C15.4137 22.5018 13.821 23.0592 12.4672 24.0945C13.0247 24.8112 13.3432 25.7668 13.3432 26.802V60.8851C14.4581 61.5222 15.8118 61.9204 17.1656 61.9204C19.3157 61.9204 20.988 60.1684 20.988 58.098V26.3242C20.988 24.1741 19.3157 22.5018 17.1656 22.5018ZM49.1434 22.1833C53.6029 22.1833 57.266 25.8464 57.266 30.3059V54.1163C57.266 58.5758 53.6029 62.1593 49.1434 62.1593H41.1801C36.7206 62.1593 33.1371 58.5758 33.1371 54.1163V30.3059C33.1371 25.8464 36.7206 22.1833 41.1801 22.1833H49.1434ZM48.9842 58.0183V26.3242C48.9842 24.1741 47.2322 22.5018 45.1617 22.5018C43.0913 22.5018 41.3393 24.1741 41.3393 26.3242V58.0183V58.098C41.3393 60.1684 43.0913 61.9204 45.1617 61.9204C47.2322 61.9204 48.9842 60.1684 48.9842 58.098V58.0183ZM61.1332 57.6202V26.802V22.3425C61.1332 22.2629 61.1332 22.1833 61.2129 22.1833H64.9556C66.3094 22.1833 67.5039 22.8203 68.3002 23.8556C69.654 22.8203 71.3263 22.1833 73.1579 22.1833H77.1396C81.599 22.1833 85.2622 25.8464 85.2622 30.3059V38.1896C85.2622 38.2692 85.1825 38.3489 85.1029 38.3489C80.6434 38.3489 76.9803 34.7653 76.9803 30.3059V26.3242C76.9803 24.1741 75.308 22.5018 73.1579 22.5018C71.406 22.5018 69.8133 23.0592 68.4595 24.0945C69.0169 24.8112 69.3355 25.7668 69.3355 26.802V57.6202V62.0796C69.3355 62.1593 69.2558 62.1593 69.1762 62.1593H65.5131C63.0444 62.1593 61.1332 60.1684 61.1332 57.6202ZM92.9518 22.1833C95.3408 22.1833 97.3316 24.2537 97.3316 26.802V62.0796C97.3316 62.1593 97.252 62.1593 97.1724 62.1593H93.5092C91.0406 62.1593 89.1294 60.1684 89.1294 57.6202V26.802C89.1294 26.7224 89.1294 26.7224 89.1294 26.7224V22.3425C89.1294 22.2629 89.1294 22.1833 89.2886 22.1833C92.7925 22.1833 95.8186 19.7943 96.7742 16.4496C96.0575 17.7238 94.7037 18.5201 93.1907 18.5201C90.961 18.5201 89.1294 16.6885 89.1294 14.3792C89.1294 12.1494 90.961 10.2382 93.1907 10.2382C95.5001 10.2382 97.3316 12.1494 97.3316 14.3792C97.3316 18.122 94.7834 21.2277 91.4388 22.1833H92.9518ZM98.1553 22.5018C98.0757 22.5018 98.0757 22.4222 98.0757 22.3425C98.0757 22.2629 98.0757 22.1833 98.1553 22.1833H101.341V10.8753V6.41583C101.341 6.33619 101.42 6.33619 101.5 6.33619H105.163C107.632 6.33619 109.543 8.32703 109.543 10.8753V22.1833H112.728C112.808 22.1833 112.888 22.2629 112.888 22.3425C112.888 22.4222 112.808 22.5018 112.728 22.5018H109.543V57.6202V62.0796C109.543 62.1593 109.543 62.1593 109.384 62.1593H105.721C103.332 62.1593 101.341 60.1684 101.341 57.6202V22.5018H98.1553ZM129.632 22.1833C134.092 22.1833 137.755 25.8464 137.755 30.3059V54.1163C137.755 58.5758 134.092 62.1593 129.632 62.1593H121.669C117.21 62.1593 113.626 58.5758 113.626 54.1163V30.3059C113.626 25.8464 117.21 22.1833 121.669 22.1833H129.632ZM129.473 58.0183V26.3242C129.473 24.1741 127.721 22.5018 125.651 22.5018C123.58 22.5018 121.828 24.1741 121.828 26.3242V58.0183V58.098C121.828 60.1684 123.58 61.9204 125.651 61.9204C127.721 61.9204 129.473 60.1684 129.473 58.098V58.0183ZM157.628 22.1833C162.088 22.1833 165.671 25.8464 165.671 30.3059V38.1896C165.671 38.2692 165.671 38.3489 165.592 38.3489C161.132 38.3489 157.469 34.7653 157.469 30.3059V26.3242C157.469 24.1741 155.717 22.5018 153.647 22.5018C151.497 22.5018 149.824 24.1741 149.824 26.3242V34.2079C149.824 36.358 151.497 38.0303 153.647 38.0303H157.628C162.088 38.11 165.671 41.6935 165.671 46.1529V54.1163C165.671 58.5758 162.088 62.1593 157.628 62.1593H153.647H149.665C145.206 62.1593 141.622 58.5758 141.622 54.1163V46.1529C141.622 46.0733 141.622 45.9937 141.702 45.9937C146.161 45.9937 149.824 49.6568 149.824 54.1163V58.098C149.824 60.1684 151.497 61.9204 153.647 61.9204C155.717 61.9204 157.469 60.1684 157.469 58.098V42.1713C157.469 40.1008 155.717 38.3489 153.647 38.3489H149.665C145.206 38.3489 141.622 34.7653 141.622 30.3059C141.622 25.8464 145.206 22.1833 149.665 22.1833H153.647H157.628Z" fill="white"/>
<path d="M96.8787 20.7785C96.8787 19.5318 97.933 18.5449 99.177 18.6271L134.095 20.9358C134.88 20.9876 135.604 20.5124 135.868 19.7717C136.349 18.4261 138.148 18.1839 138.967 19.3544L139.252 19.7616C140.188 21.0982 139.232 22.9346 137.6 22.9346H136.377H99.0348C97.844 22.9346 96.8787 21.9693 96.8787 20.7785Z" fill="white"/>
<path d="M79.6944 84.344V69.3068H85.0299C87.8956 69.3068 89.8547 71.1721 89.8547 73.9649V73.9857C89.8547 76.7785 87.8956 78.6751 85.0299 78.6751H81.1221V84.344H79.6944ZM84.6964 70.5781H81.1221V77.4038H84.6964C87.0098 77.4038 88.4062 76.122 88.4062 73.9962V73.9753C88.4062 71.8599 87.0098 70.5781 84.6964 70.5781ZM96.8887 84.5316C93.7417 84.5316 91.8034 82.2911 91.8034 78.7689V78.748C91.8034 75.2466 93.7625 72.9332 96.7741 72.9332C99.7857 72.9332 101.641 75.1841 101.641 78.5084V79.0919H93.2102C93.2519 81.718 94.69 83.2915 96.92 83.2915C98.5561 83.2915 99.6815 82.5204 100.046 81.645L100.088 81.5721H101.474L101.443 81.6554C101.005 83.1769 99.3689 84.5316 96.8887 84.5316ZM96.7741 74.1629C94.8358 74.1629 93.3978 75.5384 93.2206 77.9665H100.244C100.088 75.4759 98.702 74.1629 96.7741 74.1629ZM108.31 84.4169C106.163 84.4169 105.277 83.5937 105.277 81.5512V74.2775H103.475V73.1208H105.277V70.203H106.705V73.1208H109.269V74.2775H106.705V81.2386C106.705 82.6141 107.195 83.1873 108.466 83.1873C108.779 83.1873 108.987 83.1769 109.269 83.1456V84.3336C108.956 84.3857 108.643 84.4169 108.31 84.4169ZM122.899 84.6566C119.721 84.6566 117.564 82.9476 117.345 80.5404L117.334 80.4258H118.762L118.772 80.5404C118.929 82.1973 120.659 83.3332 122.972 83.3332C125.233 83.3332 126.859 82.1035 126.859 80.4154V80.3945C126.859 79.0086 125.869 78.0603 123.556 77.5392L122.013 77.1953C118.991 76.5076 117.72 75.2258 117.72 73.1521V73.1416C117.72 70.7553 119.856 68.9942 122.857 68.9942C125.796 68.9942 127.838 70.7032 128.016 72.8603L128.026 72.9958H126.598L126.588 72.8707C126.369 71.4222 124.952 70.3072 122.816 70.3176C120.742 70.3176 119.168 71.4326 119.168 73.1104V73.1208C119.168 74.4442 120.096 75.2883 122.378 75.8094L123.92 76.1637C127.046 76.8723 128.307 78.1332 128.307 80.2278V80.2382C128.307 82.8955 126.14 84.6566 122.899 84.6566ZM131.382 84.344V68.6503H132.757V75.0903H132.893C133.487 73.7252 134.695 72.9332 136.446 72.9332C138.947 72.9332 140.375 74.4338 140.375 77.0494V84.344H138.999V77.3933C138.999 75.2571 138.02 74.1629 136.081 74.1629C134.101 74.1629 132.757 75.5593 132.757 77.6747V84.344H131.382ZM148.336 84.5316C145.2 84.5316 143.24 82.3119 143.24 78.7376V78.7168C143.24 75.1424 145.2 72.9332 148.336 72.9332C151.473 72.9332 153.442 75.1424 153.442 78.7168V78.7376C153.442 82.3119 151.473 84.5316 148.336 84.5316ZM148.336 83.3019C150.65 83.3019 152.025 81.5721 152.025 78.7376V78.7168C152.025 75.8823 150.65 74.1629 148.336 74.1629C146.023 74.1629 144.647 75.8823 144.647 78.7168V78.7376C144.647 81.5721 146.023 83.3019 148.336 83.3019ZM156.391 88.0642V73.1208H157.767V75.3509H157.902C158.559 73.8503 159.945 72.9332 161.664 72.9332C164.509 72.9332 166.416 75.2571 166.416 78.7168V78.7376C166.416 82.2182 164.509 84.5316 161.664 84.5316C159.966 84.5316 158.517 83.6041 157.902 82.1556H157.767V88.0642H156.391ZM161.383 83.3019C163.603 83.3019 165.009 81.52 165.009 78.7376V78.7168C165.009 75.9448 163.603 74.1629 161.383 74.1629C159.174 74.1629 157.746 75.9553 157.746 78.7168V78.7376C157.746 81.5095 159.174 83.3019 161.383 83.3019Z" fill="#FF459D"/>
<path d="M30.5113 84.332L34.0758 74.7894H34.9752L38.5462 84.332H37.594L36.5359 81.409H32.5217L31.4636 84.332H30.5113ZM34.4858 75.9731L32.7995 80.6287H36.2515L34.5652 75.9731H34.4858ZM42.4281 84.4511C40.6294 84.4511 39.4192 82.9763 39.4192 80.7808V80.7676C39.4192 78.5588 40.6227 77.0907 42.4281 77.0907C43.506 77.0907 44.4253 77.6793 44.822 78.5985H44.9014V74.3727H45.7809V84.332H44.9014V82.9102H44.822C44.4054 83.8691 43.5259 84.4511 42.4281 84.4511ZM42.6133 83.6707C44.0153 83.6707 44.9212 82.5333 44.9212 80.7742V80.761C44.9212 79.0085 44.0153 77.8711 42.6133 77.8711C41.2047 77.8711 40.3119 79.0019 40.3119 80.761V80.7742C40.3119 82.5399 41.2047 83.6707 42.6133 83.6707ZM48.0823 84.332V77.2097H48.9552V78.4662H49.0412C49.3454 77.6131 50.0794 77.0907 51.0516 77.0907C52.0501 77.0907 52.7644 77.6396 53.0686 78.4927H53.1545C53.5182 77.6396 54.3515 77.0907 55.3765 77.0907C56.8049 77.0907 57.6316 77.9504 57.6316 79.4582V84.332H56.752V79.6566C56.752 78.4927 56.1899 77.8711 55.1186 77.8711C54.0208 77.8711 53.2868 78.7109 53.2868 79.8153V84.332H52.4139V79.564C52.4139 78.539 51.7658 77.8711 50.7804 77.8711C49.7488 77.8711 48.9552 78.7969 48.9552 79.9608V84.332H48.0823ZM60.2834 75.7284C59.9263 75.7284 59.6353 75.4441 59.6353 75.0869C59.6353 74.7298 59.9263 74.4455 60.2834 74.4455C60.6339 74.4455 60.9249 74.7298 60.9249 75.0869C60.9249 75.4441 60.6339 75.7284 60.2834 75.7284ZM59.8404 84.332V77.2097H60.7133V84.332H59.8404ZM62.9882 84.332V77.2097H63.8611V78.4596H63.9471C64.324 77.5999 65.0911 77.0907 66.2021 77.0907C67.7893 77.0907 68.6953 78.043 68.6953 79.7029V84.332H67.8223V79.9211C67.8223 78.5654 67.2073 77.8711 65.9707 77.8711C64.7142 77.8711 63.8611 78.7572 63.8611 80.0997V84.332H62.9882ZM74.2833 88.042V69.3364H75.5719V88.042H74.2833Z" fill="#FF459D"/>
</svg>
