<svg width="42" height="42" viewBox="0 0 42 42" fill="none" xmlns="http://www.w3.org/2000/svg">
<g id="material-symbols:calendar-clock">
<path id="Vector" d="M8.75 38.5C7.7875 38.5 6.96325 38.157 6.27725 37.471C5.59125 36.785 5.24884 35.9613 5.25 35V10.5C5.25 9.5375 5.593 8.71325 6.279 8.02725C6.965 7.34125 7.78867 6.99883 8.75 7H10.5V3.5H14V7H28V3.5H31.5V7H33.25C34.2125 7 35.0368 7.343 35.7228 8.029C36.4088 8.715 36.7512 9.53867 36.75 10.5V20.4312C36.1958 20.1688 35.6271 19.95 35.0438 19.775C34.4604 19.6 33.8625 19.4688 33.25 19.3812V17.5H8.75V35H19.775C19.9792 35.6417 20.2201 36.2542 20.4978 36.8375C20.7754 37.4208 21.1033 37.975 21.4813 38.5H8.75ZM31.5 40.25C29.0792 40.25 27.0153 39.3966 25.3085 37.6898C23.6017 35.9829 22.7488 33.9197 22.75 31.5C22.75 29.0792 23.6034 27.0153 25.3103 25.3085C27.0171 23.6017 29.0803 22.7488 31.5 22.75C33.9208 22.75 35.9847 23.6034 37.6915 25.3103C39.3983 27.0171 40.2512 29.0803 40.25 31.5C40.25 33.9208 39.3966 35.9847 37.6898 37.6915C35.9829 39.3983 33.9197 40.2512 31.5 40.25ZM34.4313 35.6562L35.6563 34.4312L32.375 31.15V26.25H30.625V31.85L34.4313 35.6562Z" fill="white"/>
</g>
</svg>
