<svg width="42" height="42" viewBox="0 0 42 42" fill="none" xmlns="http://www.w3.org/2000/svg">
<g id="mingcute:box-line" clip-path="url(#clip0_596_800)">
<g id="Group">
<path id="Vector" d="M28.7595 5.25C29.3159 5.25011 29.8643 5.38288 30.3592 5.63731C30.8541 5.89175 31.2811 6.26051 31.605 6.713L31.7607 6.94925L36.0028 14.0192C36.4208 14.7165 36.6712 15.5013 36.7342 16.3118L36.75 16.7195V33.25C36.7503 34.133 36.4168 34.9835 35.8164 35.631C35.216 36.2784 34.393 36.675 33.5125 36.7413L33.25 36.75H8.75C7.86699 36.7503 7.01651 36.4168 6.36904 35.8164C5.72157 35.216 5.32498 34.393 5.25875 33.5125L5.25 33.25V16.7195C5.25006 15.9055 5.43937 15.1027 5.803 14.3745L5.999 14.0175L10.2375 6.94925C10.5238 6.47176 10.9199 6.06945 11.3929 5.77574C11.8658 5.48204 12.4021 5.3054 12.957 5.2605L13.2405 5.25H28.7595ZM33.25 17.5H8.75V33.25H33.25V17.5ZM19.25 8.75H13.2405L10.0905 14H19.25V8.75ZM28.7595 8.75H22.75V14H31.9095L28.7595 8.75Z" fill="white"/>
</g>
</g>
<defs>
<clipPath id="clip0_596_800">
<rect width="42" height="42" fill="white"/>
</clipPath>
</defs>
</svg>
