<svg width="42" height="42" viewBox="0 0 42 42" fill="none" xmlns="http://www.w3.org/2000/svg">
<g id="ph:users-bold">
<path id="Vector" d="M20.5374 25.7482C22.1863 24.3622 23.369 22.5026 23.9252 20.4216C24.4814 18.3406 24.3841 16.1389 23.6465 14.1151C22.9089 12.0912 21.5668 10.3432 19.802 9.10808C18.0373 7.87294 15.9353 7.21045 13.7813 7.21045C11.6272 7.21045 9.5253 7.87294 7.76055 9.10808C5.9958 10.3432 4.65361 12.0912 3.91603 14.1151C3.17844 16.1389 3.08114 18.3406 3.63733 20.4216C4.19351 22.5026 5.37626 24.3622 7.02518 25.7482C4.45035 26.9124 2.219 28.7206 0.546355 30.9982C0.237419 31.4192 0.10837 31.9456 0.187597 32.4618C0.266824 32.9779 0.547837 33.4414 0.968816 33.7503C1.3898 34.0593 1.91626 34.1883 2.43238 34.1091C2.94851 34.0299 3.41203 33.7489 3.72096 33.3279C4.87882 31.7465 6.39315 30.4604 8.14109 29.5738C9.88904 28.6873 11.8214 28.2253 13.7813 28.2253C15.7412 28.2253 17.6735 28.6873 19.4215 29.5738C21.1694 30.4604 22.6837 31.7465 23.8416 33.3279C24.1505 33.7491 24.6141 34.0303 25.1304 34.1097C25.6467 34.1891 26.1734 34.0601 26.5946 33.7512C27.0158 33.4422 27.297 32.9786 27.3764 32.4623C27.4557 31.9461 27.3268 31.4194 27.0178 30.9982C25.3442 28.7209 23.1124 26.9128 20.5374 25.7482ZM7.21878 17.719C7.21878 16.421 7.60366 15.1522 8.32476 14.073C9.04585 12.9938 10.0708 12.1527 11.2699 11.656C12.4691 11.1593 13.7886 11.0293 15.0616 11.2826C16.3346 11.5358 17.5039 12.1608 18.4217 13.0786C19.3394 13.9964 19.9645 15.1657 20.2177 16.4387C20.4709 17.7117 20.3409 19.0312 19.8442 20.2303C19.3475 21.4295 18.5064 22.4544 17.4272 23.1755C16.348 23.8966 15.0792 24.2815 13.7813 24.2815C12.0408 24.2815 10.3716 23.5901 9.14089 22.3594C7.91018 21.1286 7.21878 19.4594 7.21878 17.719ZM41.0321 33.743C40.8236 33.8961 40.5871 34.0067 40.3359 34.0684C40.0847 34.1301 39.8239 34.1417 39.5682 34.1025C39.3125 34.0634 39.0671 33.9742 38.8459 33.8402C38.6247 33.7061 38.4321 33.5298 38.2791 33.3213C37.1184 31.743 35.6034 30.4591 33.8561 29.5729C32.1088 28.6867 30.1779 28.223 28.2188 28.219C27.6966 28.219 27.1959 28.0115 26.8267 27.6423C26.4574 27.2731 26.25 26.7724 26.25 26.2502C26.25 25.7281 26.4574 25.2273 26.8267 24.8581C27.1959 24.4889 27.6966 24.2815 28.2188 24.2815C29.185 24.2803 30.1391 24.0658 31.0129 23.6533C31.8867 23.2408 32.6586 22.6403 33.2734 21.895C33.8883 21.1496 34.331 20.2776 34.5699 19.3413C34.8088 18.4051 34.8379 17.4276 34.6553 16.4787C34.4727 15.5299 34.0828 14.6331 33.5135 13.8523C32.9442 13.0716 32.2094 12.4262 31.3618 11.9623C30.5142 11.4984 29.5746 11.2274 28.6101 11.1686C27.6457 11.1099 26.6801 11.2648 25.7824 11.6224C25.542 11.7209 25.2844 11.7707 25.0246 11.7692C24.7648 11.7676 24.5078 11.7146 24.2686 11.6133C24.0293 11.5119 23.8125 11.3642 23.6306 11.1787C23.4487 10.9931 23.3053 10.7734 23.2087 10.5322C23.1122 10.291 23.0643 10.033 23.0679 9.77323C23.0715 9.51342 23.1265 9.25689 23.2297 9.01843C23.3329 8.77998 23.4823 8.56431 23.6692 8.38387C23.8562 8.20343 24.077 8.06178 24.319 7.96709C26.6361 7.03939 29.2079 6.96741 31.5732 7.76406C33.9385 8.56071 35.9427 10.1739 37.2265 12.3143C38.5102 14.4548 38.9895 16.9825 38.5783 19.4443C38.1672 21.9061 36.8926 24.141 34.9831 25.7482C37.5579 26.9124 39.7893 28.7206 41.4619 30.9982C41.7678 31.4195 41.8943 31.9449 41.8137 32.4593C41.7331 32.9737 41.4521 33.4353 41.0321 33.743Z" fill="white"/>
</g>
</svg>
